<?xml version="1.0" encoding="utf-8"?>
<!-- Generator: Adobe Illustrator 22.1.0, SVG Export Plug-In . SVG Version: 6.00 Build 0)  -->
<svg version="1.1" xmlns="http://www.w3.org/2000/svg" xmlns:xlink="http://www.w3.org/1999/xlink" x="0px" y="0px"
	 viewBox="0 0 72 72" style="enable-background:new 0 0 72 72;" xml:space="preserve">
<style type="text/css">
	.st0{display:none;}
	.st1{fill:#FFFFFF;}
	.st2{fill:#999999;}
</style>
<g id="图层_1" class="st0">
	
		<image style="display:inline;overflow:visible;" width="72" height="72" xlink:href="C:\Users\Administrator\Desktop\零碎切图\多多超人\返回顶部拷贝.png" >
	</image>
</g>
<g id="图层_2">
	<circle class="st1" cx="36" cy="36" r="36"/>
</g>
<g id="图层_3">
	<g>
		<path class="st2" d="M50,24H22c-1.1,0-2-0.9-2-2v0c0-1.1,0.9-2,2-2h28c1.1,0,2,0.9,2,2v0C52,23.1,51.1,24,50,24z"/>
	</g>
	<g>
		<path class="st2" d="M47,40.5c-0.5,0-1-0.2-1.4-0.6L36,30.3l-9.6,9.6c-0.8,0.8-2,0.8-2.8,0c-0.8-0.8-0.8-2,0-2.8l11-11
			c0.8-0.8,2-0.8,2.8,0l11,11c0.8,0.8,0.8,2,0,2.8C48,40.3,47.5,40.5,47,40.5z"/>
	</g>
	<g>
		<path class="st2" d="M36,52L36,52c-1.1,0-2-0.9-2-2V31c0-1.1,0.9-2,2-2h0c1.1,0,2,0.9,2,2v19C38,51.1,37.1,52,36,52z"/>
	</g>
</g>
</svg>
