<?xml version="1.0" encoding="UTF-8"?>
<svg width="31px" height="39px" viewBox="0 0 31 39" version="1.1" xmlns="http://www.w3.org/2000/svg" xmlns:xlink="http://www.w3.org/1999/xlink">
    <!-- Generator: Sketch 63.1 (92452) - https://sketch.com -->
    <title>Group</title>
    <desc>Created with Sketch.</desc>
    <g id="发券" stroke="none" stroke-width="1" fill="none" fill-rule="evenodd">
        <g id="主界面/带银行券" transform="translate(-62.000000, -1494.000000)" fill="#333333" fill-rule="nonzero">
            <g id="Group-12" transform="translate(0.000000, 1454.000000)">
                <g id="Group-2" transform="translate(62.000000, 38.000000)">
                    <g id="Group-5">
                        <g id="Group-4" transform="translate(0.000000, 0.750000)">
                            <g id="Group" transform="translate(0.000000, 1.000000)">
                                <path d="M10.6168341,0.466551531 C11.4401794,0.466551531 12.0955378,1.13770283 12.0534377,1.93777461 C12.050385,1.99578825 12.0488518,2.05408674 12.0488518,2.11263798 C12.0488518,3.880374 13.4523126,5.29412384 15.1581662,5.29412384 C16.8640197,5.29412384 18.2674805,3.880374 18.2674805,2.11263798 C18.2674805,2.05408674 18.2659474,1.99578825 18.2628947,1.93777461 C18.2207946,1.13770283 18.876153,0.466551531 19.6994983,0.466551531 L27.7531777,0.466551531 C29.1090451,0.466551531 30.2081928,1.53602858 30.2081928,2.85529537 L30.2081928,36.1782393 C30.2081928,37.4975061 29.1090451,38.5669832 27.7531777,38.5669832 L20.0494794,38.5669832 C19.3130681,38.5669832 18.6955813,38.0258383 18.6188285,37.3132083 C18.4352111,35.6083696 17.0176719,34.3189687 15.343844,34.3189687 C13.670016,34.3189687 12.2524768,35.6083696 12.0688594,37.3132083 C11.9921066,38.0258383 11.3746198,38.5669832 10.6382085,38.5669832 L2.93451016,38.5669832 C1.57864279,38.5669832 0.479495123,37.4975061 0.479495123,36.1782393 L0.479495123,2.85529537 C0.479495123,1.53602858 1.57864279,0.466551531 2.93451016,0.466551531 L10.6168341,0.466551531 Z M9.20026536,3.46130153 L3.47424512,3.46130153 L3.47349512,12.9975515 L7.79749399,12.9982534 C8.70016665,12.9982534 9.43192742,13.695943 9.43192742,14.5565868 C9.43192742,15.4172305 8.70016665,16.1149201 7.79749399,16.1149201 L3.47349512,16.1145515 L3.47424512,35.5722332 L9.40992001,35.5722332 C10.2757865,33.0834187 12.6209892,31.3242187 15.343844,31.3242187 C18.0666987,31.3242187 20.4119014,33.0834187 21.2777679,35.5722332 L27.2134428,35.5722332 L27.2124951,16.1145515 L22.8694048,16.1149201 C21.9667322,16.1149201 21.2349714,15.4172305 21.2349714,14.5565868 C21.2349714,13.695943 21.9667322,12.9982534 22.8694048,12.9982534 L27.2124951,12.9975515 L27.2134428,3.46130153 L21.116067,3.46130153 C20.5085427,6.21835644 18.0778364,8.28887384 15.1581662,8.28887384 C12.238496,8.28887384 9.80778966,6.21835644 9.20026536,3.46130153 Z M17.339247,12.9982534 C18.0840471,12.9982534 18.687827,13.695943 18.687827,14.5565868 C18.687827,15.4172305 18.0840471,16.1149201 17.339247,16.1149201 L13.7430335,16.1149201 C12.9982333,16.1149201 12.3944535,15.4172305 12.3944535,14.5565868 C12.3944535,13.695943 12.9982333,12.9982534 13.7430335,12.9982534 L17.339247,12.9982534 Z" id="Combined-Shape"></path>
                            </g>
                        </g>
                    </g>
                </g>
            </g>
        </g>
    </g>
</svg>